<?xml version="1.0" encoding="UTF-8" standalone="no"?>
<!-- Created with Inkscape (http://www.inkscape.org/) -->

<svg
   xmlns:dc="http://purl.org/dc/elements/1.1/"
   xmlns:cc="http://creativecommons.org/ns#"
   xmlns:rdf="http://www.w3.org/1999/02/22-rdf-syntax-ns#"
   xmlns:svg="http://www.w3.org/2000/svg"
   xmlns="http://www.w3.org/2000/svg"
   xmlns:sodipodi="http://sodipodi.sourceforge.net/DTD/sodipodi-0.dtd"
   xmlns:inkscape="http://www.inkscape.org/namespaces/inkscape"
   width="227.93973mm"
   height="114.0354mm"
   viewBox="0 0 227.93972 114.0354"
   version="1.1"
   id="svg8"
   inkscape:version="0.92.2 5c3e80d, 2017-08-06"
   sodipodi:docname="DSII_silhouette_coef.svg">
  <defs
     id="defs2">
    <style
       id="style1131">.cls-1,.cls-6{fill:none;stroke-miterlimit:10;stroke-width:5px;}.cls-1{stroke:#000;}.cls-2{font-size:55px;font-family:STIXGeneral-BoldItalic, STIXGeneral;font-weight:700;font-style:italic;}.cls-3{fill:#42a5f5;}.cls-4{fill:#ba2121;}.cls-5{fill:#efa016;}.cls-6{stroke:#ba2121;}</style>
  </defs>
  <sodipodi:namedview
     id="base"
     pagecolor="#ffffff"
     bordercolor="#666666"
     borderopacity="1.0"
     inkscape:pageopacity="0.0"
     inkscape:pageshadow="2"
     inkscape:zoom="0.7"
     inkscape:cx="761.72756"
     inkscape:cy="211.04467"
     inkscape:document-units="mm"
     inkscape:current-layer="layer1"
     showgrid="false"
     inkscape:window-width="1338"
     inkscape:window-height="939"
     inkscape:window-x="488"
     inkscape:window-y="43"
     inkscape:window-maximized="0" />
  <metadata
     id="metadata5">
    <rdf:RDF>
      <cc:Work
         rdf:about="">
        <dc:format>image/svg+xml</dc:format>
        <dc:type
           rdf:resource="http://purl.org/dc/dcmitype/StillImage" />
        <dc:title />
      </cc:Work>
    </rdf:RDF>
  </metadata>
  <g
     inkscape:label="Layer 1"
     inkscape:groupmode="layer"
     id="layer1"
     transform="translate(-7.3622548,-11.188126)">
    <ellipse
       style="opacity:0.2;fill:#ba2121;fill-opacity:1;stroke:none;stroke-width:0.41404691;stroke-miterlimit:4;stroke-dasharray:none;stroke-opacity:1"
       id="path2268"
       cx="70.805244"
       cy="54.180855"
       rx="24.321527"
       ry="22.985178" />
    <path
       style="fill:none;stroke:#42a5f5;stroke-width:0.40000001;stroke-linecap:butt;stroke-linejoin:miter;stroke-miterlimit:4;stroke-dasharray:none;stroke-opacity:1"
       d="M 49.824581,82.778693 67.646724,62.098799 66.261659,88.257719"
       id="path2256"
       inkscape:connector-curvature="0" />
    <path
       style="fill:none;stroke:#42a5f5;stroke-width:0.40000001;stroke-linecap:butt;stroke-linejoin:miter;stroke-miterlimit:4;stroke-dasharray:none;stroke-opacity:1"
       d="M 33.654776,80.105997 67.646724,62.098799 28.977559,94.939457"
       id="path2258"
       inkscape:connector-curvature="0" />
    <path
       style="fill:none;stroke:#42a5f5;stroke-width:0.40000001;stroke-linecap:butt;stroke-linejoin:miter;stroke-miterlimit:4;stroke-dasharray:none;stroke-opacity:1"
       d="M 39.534706,91.999491 67.646724,62.098799 42.74194,102.82391"
       id="path2260"
       inkscape:connector-curvature="0" />
    <path
       style="fill:none;stroke:#42a5f5;stroke-width:0.40000001;stroke-linecap:butt;stroke-linejoin:miter;stroke-miterlimit:4;stroke-dasharray:none;stroke-opacity:1"
       d="M 57.040859,96.275803 67.646724,62.098799 63.321694,104.42753"
       id="path2262"
       inkscape:connector-curvature="0" />
    <path
       style="fill:none;stroke:#42a5f5;stroke-width:0.40000001;stroke-linecap:butt;stroke-linejoin:miter;stroke-miterlimit:4;stroke-dasharray:none;stroke-opacity:1"
       d="M 49.557313,102.28937 67.646724,62.098799 44.479192,110.44109"
       id="path2264"
       inkscape:connector-curvature="0" />
    <path
       style="fill:none;stroke:#42a5f5;stroke-width:0.40000001;stroke-linecap:butt;stroke-linejoin:miter;stroke-miterlimit:4;stroke-dasharray:none;stroke-opacity:1"
       d="M 32.051159,106.69931 67.646724,62.098799 59.179016,112.71288"
       id="path2266"
       inkscape:connector-curvature="0" />
    <path
       style="fill:none;stroke:#ba2121;stroke-width:0.40000001;stroke-linecap:butt;stroke-linejoin:miter;stroke-miterlimit:4;stroke-dasharray:none;stroke-opacity:1"
       d="M 69.15863,48.491657 67.646724,62.098799 78.419047,49.72008"
       id="path2177"
       inkscape:connector-curvature="0" />
    <path
       style="fill:none;stroke:#ba2121;stroke-width:0.40000001;stroke-linecap:butt;stroke-linejoin:miter;stroke-miterlimit:4;stroke-dasharray:none;stroke-opacity:1"
       d="m 87.962946,46.223799 -20.316222,15.875 22.962056,-5.197171"
       id="path2179"
       inkscape:connector-curvature="0" />
    <path
       style="fill:none;stroke:#ba2121;stroke-width:0.40000001;stroke-linecap:butt;stroke-linejoin:miter;stroke-miterlimit:4;stroke-dasharray:none;stroke-opacity:1"
       d="M 80.875891,65.311597 67.646724,62.098799 70.103571,73.343592"
       id="path2181"
       inkscape:connector-curvature="0" />
    <path
       style="fill:none;stroke:#ba2121;stroke-width:0.40000001;stroke-linecap:butt;stroke-linejoin:miter;stroke-miterlimit:4;stroke-dasharray:none;stroke-opacity:1"
       d="m 58.386308,64.272163 9.260416,-2.173364 -15.21354,-15.21354"
       id="path2183"
       inkscape:connector-curvature="0" />
    <path
       style="fill:none;stroke:#ba2121;stroke-width:0.40000001;stroke-linecap:butt;stroke-linejoin:miter;stroke-miterlimit:4;stroke-dasharray:none;stroke-opacity:1"
       d="M 67.646724,62.098799 68.591665,37.152372"
       id="path2185"
       inkscape:connector-curvature="0" />
    <circle
       r="1.7161304"
       cy="81.363426"
       cx="-23.520369"
       id="circle1552"
       style="fill:#000000;fill-opacity:1;stroke:none;stroke-width:0.12395056;stroke-miterlimit:4;stroke-dasharray:none;stroke-opacity:1"
       transform="rotate(-70.973525)" />
    <circle
       style="fill:#000000;fill-opacity:1;stroke:none;stroke-width:0.12395056;stroke-miterlimit:4;stroke-dasharray:none;stroke-opacity:1"
       id="circle1554"
       cx="-21.323294"
       cy="90.463432"
       r="1.7161304"
       transform="rotate(-70.973525)" />
    <circle
       style="fill:#000000;fill-opacity:1;stroke:none;stroke-width:0.12395056;stroke-miterlimit:4;stroke-dasharray:none;stroke-opacity:1"
       id="circle1558"
       cx="-35.551853"
       cy="97.686829"
       r="1.7161304"
       transform="rotate(-70.973525)" />
    <circle
       r="1.7161304"
       cy="90.108871"
       cx="-46.653084"
       id="circle1560"
       style="fill:#000000;fill-opacity:1;stroke:none;stroke-width:0.12395056;stroke-miterlimit:4;stroke-dasharray:none;stroke-opacity:1"
       transform="rotate(-70.973525)" />
    <circle
       style="fill:#000000;fill-opacity:1;stroke:none;stroke-width:0.12395056;stroke-miterlimit:4;stroke-dasharray:none;stroke-opacity:1"
       id="circle1562"
       cx="-41.699039"
       cy="76.30526"
       r="1.7161304"
       transform="rotate(-70.973525)" />
    <circle
       r="1.7161304"
       cy="104.1013"
       cx="-24.326529"
       id="circle1556"
       style="fill:#000000;fill-opacity:1;stroke:none;stroke-width:0.12395056;stroke-miterlimit:4;stroke-dasharray:none;stroke-opacity:1"
       transform="rotate(-70.973525)" />
    <circle
       r="1.7161304"
       cy="64.987259"
       cx="-27.308008"
       id="circle1564"
       style="fill:#000000;fill-opacity:1;stroke:none;stroke-width:0.12395056;stroke-miterlimit:4;stroke-dasharray:none;stroke-opacity:1"
       transform="rotate(-70.973525)" />
    <circle
       style="fill:#000000;fill-opacity:1;stroke:none;stroke-width:0.12395056;stroke-miterlimit:4;stroke-dasharray:none;stroke-opacity:1"
       id="circle1566"
       cx="-12.833934"
       cy="77.107071"
       r="1.7161304"
       transform="rotate(-70.973525)" />
    <circle
       style="fill:#000000;fill-opacity:1;stroke:none;stroke-width:0.12395056;stroke-miterlimit:4;stroke-dasharray:none;stroke-opacity:1"
       id="circle1570"
       cx="-15.033334"
       cy="98.043289"
       r="1.7161304"
       transform="rotate(-70.973525)" />
    <circle
       r="1.7161304"
       cy="80.243881"
       cx="-80.646194"
       id="circle1526"
       style="fill:#000000;fill-opacity:1;stroke:none;stroke-width:0.12395056;stroke-miterlimit:4;stroke-dasharray:none;stroke-opacity:1"
       transform="rotate(-70.973525)" />
    <circle
       style="fill:#000000;fill-opacity:1;stroke:none;stroke-width:0.12395056;stroke-miterlimit:4;stroke-dasharray:none;stroke-opacity:1"
       id="circle1528"
       cx="-73.94223"
       cy="67.569504"
       r="1.7161304"
       transform="rotate(-70.973525)" />
    <circle
       r="1.7161304"
       cy="92.80555"
       cx="-87.060677"
       id="circle1534"
       style="fill:#000000;fill-opacity:1;stroke:none;stroke-width:0.12395056;stroke-miterlimit:4;stroke-dasharray:none;stroke-opacity:1"
       transform="rotate(-70.973525)" />
    <circle
       style="fill:#000000;fill-opacity:1;stroke:none;stroke-width:0.12395056;stroke-miterlimit:4;stroke-dasharray:none;stroke-opacity:1"
       id="circle1536"
       cx="-89.703041"
       cy="78.580147"
       r="1.7161304"
       transform="rotate(-70.973525)" />
    <circle
       r="1.7161304"
       cy="65.257019"
       cx="-90.451851"
       id="circle1538"
       style="fill:#000000;fill-opacity:1;stroke:none;stroke-width:0.12395056;stroke-miterlimit:4;stroke-dasharray:none;stroke-opacity:1"
       transform="rotate(-70.973525)" />
    <circle
       style="fill:#000000;fill-opacity:1;stroke:none;stroke-width:0.12395056;stroke-miterlimit:4;stroke-dasharray:none;stroke-opacity:1"
       id="circle1540"
       cx="-80.378929"
       cy="58.327835"
       r="1.7161304"
       transform="rotate(-70.973525)" />
    <circle
       style="fill:#000000;fill-opacity:1;stroke:none;stroke-width:0.12395056;stroke-miterlimit:4;stroke-dasharray:none;stroke-opacity:1"
       id="circle1544"
       cx="-64.342751"
       cy="58.06057"
       r="1.7161304"
       transform="rotate(-70.973525)" />
    <circle
       r="1.7161304"
       cy="91.4692"
       cx="-61.937325"
       id="circle1546"
       style="fill:#000000;fill-opacity:1;stroke:none;stroke-width:0.12395056;stroke-miterlimit:4;stroke-dasharray:none;stroke-opacity:1"
       transform="rotate(-70.973525)" />
    <circle
       style="fill:#000000;fill-opacity:1;stroke:none;stroke-width:0.12395056;stroke-miterlimit:4;stroke-dasharray:none;stroke-opacity:1"
       id="path815"
       cx="-83.318893"
       cy="74.363983"
       r="1.7161304"
       transform="rotate(-70.973525)" />
    <circle
       r="1.7161304"
       cy="85.38842"
       cx="-72.614784"
       id="circle1530"
       style="fill:#000000;fill-opacity:1;stroke:none;stroke-width:0.12395056;stroke-miterlimit:4;stroke-dasharray:none;stroke-opacity:1"
       transform="rotate(-70.973525)" />
    <circle
       style="fill:#000000;fill-opacity:1;stroke:none;stroke-width:0.12395056;stroke-miterlimit:4;stroke-dasharray:none;stroke-opacity:1"
       id="circle1532"
       cx="-78.240768"
       cy="94.141899"
       r="1.7161304"
       transform="rotate(-70.973525)" />
    <circle
       r="1.7161304"
       cy="74.015038"
       cx="-62.083183"
       id="circle1542"
       style="fill:#000000;fill-opacity:1;stroke:none;stroke-width:0.12395056;stroke-miterlimit:4;stroke-dasharray:none;stroke-opacity:1"
       transform="rotate(-70.973525)" />
    <circle
       style="fill:#000000;fill-opacity:1;stroke:none;stroke-width:0.12395056;stroke-miterlimit:4;stroke-dasharray:none;stroke-opacity:1"
       id="circle1572"
       cx="-47.711895"
       cy="146.91855"
       r="1.7161304"
       transform="rotate(-70.973525)" />
    <circle
       style="fill:#000000;fill-opacity:1;stroke:none;stroke-width:0.12395056;stroke-miterlimit:4;stroke-dasharray:none;stroke-opacity:1"
       id="circle1574"
       cx="-38.892002"
       cy="142.1077"
       r="1.7161304"
       transform="rotate(-70.973525)" />
    <circle
       r="1.7161304"
       cy="154.93665"
       cx="-39.42654"
       id="circle1576"
       style="fill:#000000;fill-opacity:1;stroke:none;stroke-width:0.12395056;stroke-miterlimit:4;stroke-dasharray:none;stroke-opacity:1"
       transform="rotate(-70.973525)" />
    <circle
       style="fill:#000000;fill-opacity:1;stroke:none;stroke-width:0.12395056;stroke-miterlimit:4;stroke-dasharray:none;stroke-opacity:1"
       id="circle1578"
       cx="-30.061068"
       cy="162.1026"
       r="1.7161304"
       transform="rotate(-70.973525)" />
    <circle
       r="1.7161304"
       cy="162.68745"
       cx="-48.246445"
       id="circle1580"
       style="fill:#000000;fill-opacity:1;stroke:none;stroke-width:0.12395056;stroke-miterlimit:4;stroke-dasharray:none;stroke-opacity:1"
       transform="rotate(-70.973525)" />
    <circle
       style="fill:#000000;fill-opacity:1;stroke:none;stroke-width:0.12395056;stroke-miterlimit:4;stroke-dasharray:none;stroke-opacity:1"
       id="circle1582"
       cx="-55.997246"
       cy="155.20389"
       r="1.7161304"
       transform="rotate(-70.973525)" />
    <circle
       r="1.7161304"
       cy="136.66096"
       cx="-56.906334"
       id="circle1584"
       style="fill:#000000;fill-opacity:1;stroke:none;stroke-width:0.12395056;stroke-miterlimit:4;stroke-dasharray:none;stroke-opacity:1"
       transform="rotate(-70.973525)" />
    <circle
       style="fill:#000000;fill-opacity:1;stroke:none;stroke-width:0.12395056;stroke-miterlimit:4;stroke-dasharray:none;stroke-opacity:1"
       id="circle1586"
       cx="-44.504658"
       cy="131.41692"
       r="1.7161304"
       transform="rotate(-70.973525)" />
    <circle
       r="1.7161304"
       cy="144.7804"
       cx="-27.933943"
       id="circle1588"
       style="fill:#000000;fill-opacity:1;stroke:none;stroke-width:0.12395056;stroke-miterlimit:4;stroke-dasharray:none;stroke-opacity:1"
       transform="rotate(-70.973525)" />
    <circle
       r="1.7161304"
       cy="150.92758"
       cx="-19.915861"
       id="circle1590"
       style="fill:#000000;fill-opacity:1;stroke:none;stroke-width:0.12395056;stroke-miterlimit:4;stroke-dasharray:none;stroke-opacity:1"
       transform="rotate(-70.973525)" />
    <circle
       r="1.7161304"
       cy="136.76978"
       cx="-28.815298"
       id="circle1592"
       style="fill:#000000;fill-opacity:1;stroke:none;stroke-width:0.12395056;stroke-miterlimit:4;stroke-dasharray:none;stroke-opacity:1"
       transform="rotate(-70.973525)" />
    <rect
       style="fill:none;fill-opacity:1;stroke:#ffffff;stroke-width:0.47290298;stroke-miterlimit:4;stroke-dasharray:none;stroke-opacity:1"
       id="rect2005"
       width="227.46683"
       height="113.5625"
       x="7.5987062"
       y="11.424578" />
    <path
       style="fill:#ba2121;fill-opacity:1;stroke-width:0.15700549"
       d="m 50.117009,35.914888 c -0.301923,-0.247769 -0.338368,-0.356949 -0.196539,-0.58877 0.09576,-0.156528 0.343048,-0.284596 0.549519,-0.284596 0.290859,0 0.372409,0.08129 0.362111,0.360947 -0.01165,0.316346 0.01502,0.332639 0.215796,0.131859 0.214962,-0.214963 1.277492,-4.093977 1.285413,-4.692703 0.0023,-0.171301 -0.114604,-0.27476 -0.310376,-0.27476 -0.172706,0 -0.314011,-0.09784 -0.314011,-0.217418 0,-0.146185 0.287246,-0.253306 0.876748,-0.32696 0.482212,-0.06025 0.909219,-0.07707 0.948904,-0.03739 0.123714,0.123713 -1.038208,4.514675 -1.363259,5.151827 -0.294512,0.577291 -0.974585,1.082136 -1.457738,1.082136 -0.124252,0 -0.392707,-0.136879 -0.596568,-0.304175 z m -4.998324,-3.93098 c -0.965537,-0.965537 -0.384511,-3.246657 1.205873,-4.734275 0.864097,-0.808261 1.711105,-1.158442 2.452348,-1.01388 0.601135,0.117237 0.654937,0.117086 1.401212,-0.0039 0.323824,-0.05251 0.588059,-0.03475 0.587189,0.03946 -8.7e-4,0.07421 -0.277517,1.230045 -0.614772,2.568516 -0.337255,1.338472 -0.58309,2.463761 -0.5463,2.500642 0.03679,0.03688 0.264314,-0.122087 0.50561,-0.353262 0.458656,-0.439421 0.814049,-0.545358 0.814049,-0.242655 0,0.09772 -0.308639,0.486304 -0.685866,0.86353 -0.505913,0.505914 -0.809824,0.685866 -1.158316,0.685866 -0.608224,0 -0.891618,-0.339222 -0.752499,-0.900742 l 0.107477,-0.433804 -0.52171,0.491428 c -0.707796,0.666714 -1.094018,0.843118 -1.845934,0.843118 -0.426262,0 -0.741343,-0.102999 -0.948361,-0.310017 z m 2.04797,-0.716151 c 1.25781,-0.650439 2.552903,-3.839747 1.809689,-4.45656 -0.57154,-0.474336 -1.751136,0.435789 -2.416212,1.864247 -0.467967,1.005106 -0.634449,2.250871 -0.347075,2.597135 0.245782,0.29615 0.372825,0.295508 0.953598,-0.0048 z M 52.81422,28.92585 c -0.244081,-0.294099 -0.158827,-0.712271 0.189997,-0.931944 0.544008,-0.342591 1.156595,0.429395 0.739517,0.931944 -0.242513,0.292209 -0.687002,0.292209 -0.929514,0 z"
       id="path2175"
       inkscape:connector-curvature="0" />
    <circle
       transform="rotate(-70.973525)"
       r="1.7161304"
       cy="84.214775"
       cx="-36.451649"
       id="circle2187"
       style="fill:#000000;fill-opacity:1;stroke:none;stroke-width:0.12395056;stroke-miterlimit:4;stroke-dasharray:none;stroke-opacity:1" />
    <path
       style="fill:#42a5f5;fill-opacity:1;stroke-width:0.14882812"
       d="m 19.005618,86.436647 c -0.401557,-0.293626 -0.263747,-0.921837 0.202221,-0.921837 0.266434,0 0.389796,0.100744 0.455605,0.372071 l 0.09025,0.37207 0.181974,-0.334532 c 0.145821,-0.268071 1.213652,-4.294904 1.213652,-4.576731 0,-0.04096 -0.133946,-0.07448 -0.297657,-0.07448 -0.16371,0 -0.297656,-0.09183 -0.297656,-0.204069 0,-0.208604 1.435532,-0.493602 1.609582,-0.319552 0.108524,0.108523 -0.65862,3.308808 -1.042687,4.349768 -0.456496,1.23727 -1.419479,1.846074 -2.115279,1.337291 z m -4.66519,-3.748212 c -0.26603,-0.115628 -0.483691,-0.288743 -0.483691,-0.384701 0,-0.09596 0.435322,-1.765202 0.967383,-3.709432 0.53206,-1.944229 0.967383,-3.571433 0.967383,-3.616008 0,-0.04457 -0.200918,-0.125173 -0.446485,-0.179109 -0.425922,-0.09355 -0.574755,-0.279946 -0.334863,-0.419383 0.06139,-0.03568 0.573485,-0.112989 1.137985,-0.171789 l 1.026363,-0.10691 -0.08921,0.497869 c -0.04906,0.273828 -0.288438,1.219739 -0.531942,2.102024 l -0.442735,1.604155 0.418289,-0.447781 c 0.811272,-0.868469 1.94698,-1.008212 2.703117,-0.332603 0.421687,0.376777 0.467913,0.501608 0.461228,1.245524 -0.01318,1.467114 -1.140739,3.118182 -2.617798,3.833215 -0.74568,0.360977 -2.009611,0.400225 -2.735028,0.08493 z m 2.031685,-0.440241 c 1.255979,-0.649492 2.442701,-3.029932 1.960081,-3.931716 -0.289685,-0.541282 -1.071787,-0.429806 -1.656462,0.236102 -0.830784,0.946211 -1.704808,3.277534 -1.408503,3.756964 0.134785,0.218088 0.616204,0.191357 1.104884,-0.06135 z m 5.247872,-2.445169 c -0.259989,-0.164796 -0.16701,-0.763383 0.149374,-0.961651 0.324967,-0.203646 0.719409,0.110952 0.719409,0.573783 0,0.443375 -0.458367,0.648012 -0.868783,0.387868 z"
       id="path2254"
       inkscape:connector-curvature="0" />
    <ellipse
       ry="23.118813"
       rx="25.79151"
       cy="96.00853"
       cx="46.617352"
       id="ellipse2270"
       style="opacity:0.2;fill:#42a5f5;fill-opacity:1;stroke:none;stroke-width:0.42761344;stroke-miterlimit:4;stroke-dasharray:none;stroke-opacity:1" />
    <ellipse
       ry="24.187891"
       rx="25.256971"
       cy="85.317757"
       cx="125.72913"
       id="ellipse2272"
       style="opacity:0.2;fill:#efa016;fill-opacity:1;stroke:none;stroke-width:0.43283245;stroke-miterlimit:4;stroke-dasharray:none;stroke-opacity:1" />
    <path
       inkscape:connector-curvature="0"
       id="path2274"
       d="m 120.0362,28.17542 c -0.21882,-0.179567 -0.24522,-0.258694 -0.14244,-0.426703 0.0694,-0.113443 0.24862,-0.206258 0.39825,-0.206258 0.21081,0 0.2699,0.05892 0.26244,0.261592 -0.008,0.229268 0.0109,0.241076 0.1564,0.09556 0.15579,-0.155791 0.92584,-2.967059 0.93158,-3.400978 0.002,-0.124148 -0.083,-0.199129 -0.22493,-0.199129 -0.12517,0 -0.22758,-0.07091 -0.22758,-0.157571 0,-0.105946 0.20818,-0.18358 0.63541,-0.23696 0.34948,-0.04367 0.65894,-0.05586 0.68771,-0.0271 0.0897,0.08966 -0.75243,3.271955 -0.98801,3.733723 -0.21344,0.418384 -0.70632,0.784264 -1.05648,0.784264 -0.09,0 -0.28461,-0.0992 -0.43235,-0.220447 z m -3.62248,-2.848928 c -0.69976,-0.699762 -0.27866,-2.352974 0.87395,-3.431108 0.62624,-0.585776 1.2401,-0.839566 1.77731,-0.734796 0.43567,0.08497 0.47465,0.08486 1.0155,-0.0028 0.23469,-0.03806 0.42619,-0.02519 0.42556,0.02859 -6.2e-4,0.05378 -0.20113,0.89146 -0.44554,1.8615 -0.24443,0.970041 -0.42259,1.78558 -0.39593,1.812309 0.0267,0.02673 0.19156,-0.08848 0.36644,-0.256023 0.3324,-0.318464 0.58997,-0.395241 0.58997,-0.175861 0,0.07083 -0.22368,0.352443 -0.49707,0.625833 -0.36666,0.366655 -0.58691,0.497073 -0.83948,0.497073 -0.4408,0 -0.64618,-0.245847 -0.54536,-0.652801 l 0.0779,-0.314395 -0.37809,0.356157 c -0.51297,0.483192 -0.79288,0.611039 -1.33782,0.611039 -0.30892,0 -0.53727,-0.07465 -0.68732,-0.224681 z m 1.48425,-0.519022 c 0.91158,-0.471398 1.85018,-2.782809 1.31155,-3.229836 -0.41421,-0.34377 -1.26912,0.315833 -1.75112,1.35109 -0.33915,0.728437 -0.45981,1.63129 -0.25154,1.88224 0.17812,0.214632 0.2702,0.214167 0.69111,-0.0035 z m 4.093,-1.697268 c -0.1769,-0.213145 -0.11511,-0.516209 0.1377,-0.675415 0.39426,-0.248289 0.83823,0.311199 0.53596,0.675415 -0.17576,0.211775 -0.4979,0.211775 -0.67366,0 z"
       style="fill:#ba2121;fill-opacity:1;stroke-width:0.11378777" />
    <path
       inkscape:connector-curvature="0"
       id="path2276"
       d="m 119.59455,40.336705 c -0.29103,-0.212802 -0.19115,-0.66809 0.14656,-0.66809 0.19309,0 0.28249,0.07301 0.33019,0.269654 l 0.0654,0.269654 0.13189,-0.242449 c 0.10569,-0.19428 0.87958,-3.112678 0.87958,-3.316928 0,-0.02968 -0.0971,-0.05398 -0.21572,-0.05398 -0.11865,0 -0.21572,-0.06655 -0.21572,-0.147896 0,-0.151183 1.04038,-0.357732 1.16652,-0.231591 0.0786,0.07865 -0.47732,2.398016 -0.75568,3.152439 -0.33084,0.896697 -1.02874,1.33792 -1.53302,0.969187 z m -3.38104,-2.716469 c -0.1928,-0.0838 -0.35055,-0.209264 -0.35055,-0.278808 0,-0.06955 0.3155,-1.279308 0.7011,-2.688364 0.38561,-1.409056 0.7011,-2.588352 0.7011,-2.620657 0,-0.0323 -0.14562,-0.09072 -0.32359,-0.129807 -0.30868,-0.0678 -0.41654,-0.202887 -0.24269,-0.303943 0.0445,-0.02586 0.41563,-0.08189 0.82475,-0.124501 l 0.74384,-0.07748 -0.0647,0.360825 c -0.0356,0.198453 -0.20904,0.883991 -0.38551,1.523416 l -0.32087,1.162591 0.30315,-0.324524 c 0.58796,-0.629412 1.41105,-0.730689 1.95906,-0.24105 0.3056,0.273065 0.3391,0.363534 0.33426,0.902678 -0.01,1.063273 -0.82673,2.259864 -1.89722,2.778075 -0.54042,0.261614 -1.45644,0.290058 -1.98217,0.06155 z m 1.47244,-0.31906 c 0.91026,-0.470711 1.77031,-2.195905 1.42054,-2.849462 -0.20994,-0.392287 -0.77676,-0.311496 -1.2005,0.171112 -0.60209,0.685755 -1.23553,2.375352 -1.02079,2.722813 0.0977,0.158056 0.44658,0.138683 0.80075,-0.04446 z m 3.80333,-1.772105 c -0.18842,-0.119434 -0.12104,-0.553253 0.10826,-0.696945 0.23551,-0.14759 0.52138,0.08041 0.52138,0.415842 0,0.321331 -0.3322,0.469639 -0.62964,0.281103 z"
       style="fill:#42a5f5;fill-opacity:1;stroke-width:0.10786133" />
    <text
       xml:space="preserve"
       style="font-style:normal;font-weight:normal;font-size:7.31883001px;line-height:1.25;font-family:sans-serif;letter-spacing:0px;word-spacing:0px;fill:#000000;fill-opacity:1;stroke:none;stroke-width:0.18297075"
       x="123.02338"
       y="25.46069"
       id="text2280"><tspan
         sodipodi:role="line"
         id="tspan2278"
         x="123.02338"
         y="25.46069"
         style="font-style:normal;font-variant:normal;font-weight:normal;font-stretch:normal;font-family:Arial;-inkscape-font-specification:Arial;stroke-width:0.18297075">: mean distance within cluster</tspan></text>
    <text
       id="text2284"
       y="37.555927"
       x="123.02338"
       style="font-style:normal;font-weight:normal;font-size:7.31883001px;line-height:1.25;font-family:sans-serif;letter-spacing:0px;word-spacing:0px;fill:#000000;fill-opacity:1;stroke:none;stroke-width:0.18297075"
       xml:space="preserve"><tspan
         style="font-style:normal;font-variant:normal;font-weight:normal;font-stretch:normal;font-family:Arial;-inkscape-font-specification:Arial;stroke-width:0.18297075"
         y="37.555927"
         x="123.02338"
         id="tspan2282"
         sodipodi:role="line">: mean distance to closest cluster</tspan></text>
    <path
       style="fill:#000000;stroke-width:0.09090935"
       d="m 204.29066,77.960898 c -0.56915,-0.446522 -1.16522,-1.275407 -1.41974,-1.974294 -0.2665,-0.731807 -0.32358,-2.172463 -0.11449,-2.891517 0.22732,-0.781963 0.46489,-1.194178 1.02937,-1.785966 0.61779,-0.647684 1.07897,-0.953554 1.22204,-0.81049 0.073,0.07301 -0.0364,0.243422 -0.40303,0.627804 -0.27678,0.290176 -0.57033,0.657331 -0.65233,0.815901 -0.25761,0.498168 -0.41908,1.400129 -0.42047,2.348816 -0.003,1.665718 0.27803,2.518016 1.1095,3.371457 0.41849,0.429573 0.49969,0.67036 0.22471,0.666416 -0.0596,-0.001 -0.31854,-0.166505 -0.57552,-0.368127 z m 19.3801,0.284772 c -0.0289,-0.04664 0.15514,-0.292546 0.40889,-0.546312 0.27464,-0.274633 0.57626,-0.70684 0.74519,-1.067848 0.26232,-0.560561 0.28689,-0.697229 0.32446,-1.805202 0.0672,-1.984262 -0.19386,-2.897835 -1.08237,-3.786345 -0.42906,-0.429064 -0.49472,-0.618491 -0.2144,-0.618491 0.0712,0 0.41732,0.271704 0.76935,0.603787 2.07273,1.955324 1.98477,5.186469 -0.18768,6.893235 -0.53427,0.419757 -0.67022,0.478016 -0.76344,0.327176 z m -29.52052,-1.710545 c -0.43124,-0.463547 -0.39882,-1.084591 0.0831,-1.592662 0.26359,-0.277878 1.01216,-0.691079 1.59271,-0.879176 0.28863,-0.09352 0.34091,-0.15029 0.34091,-0.370212 0,-0.315424 -0.15388,-0.742907 -0.30114,-0.836537 -0.14975,-0.09522 -0.62598,-0.08599 -0.78601,0.01525 -0.0851,0.05381 -0.12451,0.204105 -0.11012,0.41926 0.0401,0.595227 -0.42362,0.873315 -0.81071,0.486206 -0.33207,-0.332062 -0.0162,-0.960612 0.61859,-1.231117 0.44453,-0.189411 1.37821,-0.160708 1.70134,0.0523 0.44713,0.294743 0.4994,0.48601 0.50291,1.839879 0.001,0.684247 0.0443,1.352231 0.0947,1.484388 0.0794,0.208638 0.12721,0.232436 0.36364,0.180524 0.23183,-0.05088 0.27226,-0.03277 0.27226,0.122584 0,0.28783 -0.42144,0.559289 -0.86831,0.559289 -0.31439,0 -0.42235,-0.04549 -0.56137,-0.236277 l -0.1721,-0.236264 -0.34816,0.236264 c -0.2737,0.185753 -0.45847,0.236277 -0.86392,0.236277 -0.44568,0 -0.54738,-0.03392 -0.74833,-0.250013 z m 1.79359,-0.609505 c 0.19749,-0.197484 0.22315,-0.302003 0.22315,-0.9091 0,-0.377271 -0.017,-0.685944 -0.0379,-0.685944 -0.0209,0 -0.21781,0.07707 -0.43766,0.171348 -0.74488,0.319292 -1.08026,0.968347 -0.74655,1.444782 0.2,0.285556 0.70296,0.274929 0.99898,-0.02107 z m -9.39056,0.654967 c 0.0208,-0.06245 0.11629,-0.127339 0.21212,-0.144043 0.35403,-0.06181 0.40156,-0.263763 0.40156,-1.706819 0,-0.761359 -0.0249,-1.448993 -0.0551,-1.528081 -0.0328,-0.08528 -0.16223,-0.143799 -0.31818,-0.143799 -0.47274,0 -0.28469,-0.229958 0.35708,-0.436655 0.80747,-0.260063 0.92536,-0.256552 0.92536,0.02758 0,0.125 0.0186,0.227272 0.0415,0.227272 0.0227,0 0.19211,-0.10227 0.37631,-0.227272 0.56349,-0.382385 1.514,-0.285481 1.76298,0.179736 l 0.10974,0.205111 0.45479,-0.30606 c 0.38557,-0.259462 0.53458,-0.306065 0.97874,-0.306065 0.44422,0 0.56022,0.03629 0.76243,0.238498 0.34522,0.345208 0.42158,0.740695 0.42216,2.185895 2.7e-4,0.7084 0.0253,1.352728 0.0558,1.431817 0.0328,0.08532 0.16221,0.143799 0.31818,0.143799 0.17317,0 0.263,0.04664 0.263,0.136372 0,0.113719 -0.18267,0.13636 -1.09848,0.13636 -0.83815,0 -1.08962,-0.02698 -1.06108,-0.11359 0.0206,-0.06245 0.12336,-0.126311 0.22826,-0.141834 0.3668,-0.05423 0.40024,-0.208188 0.36961,-1.701714 -0.0284,-1.386017 -0.035,-1.427634 -0.2531,-1.604012 -0.25936,-0.209784 -0.63942,-0.173944 -1.0034,0.09462 -0.22219,0.163946 -0.22783,0.197489 -0.25244,1.500371 -0.0274,1.448177 0.0294,1.693474 0.392,1.693474 0.13857,0 0.22408,0.05204 0.22408,0.13636 0,0.113718 -0.18266,0.136372 -1.09849,0.136372 -0.83837,0 -1.08953,-0.02698 -1.06067,-0.11359 0.0208,-0.06245 0.11629,-0.128239 0.21215,-0.146138 0.3755,-0.07016 0.40154,-0.168509 0.40154,-1.518159 0,-1.420625 -0.0639,-1.717636 -0.40198,-1.871733 -0.18539,-0.08447 -0.29888,-0.06477 -0.66091,0.114759 l -0.43711,0.216736 -0.0261,1.318189 c -0.0312,1.577713 -0.008,1.705758 0.31476,1.743986 0.13353,0.01593 0.25956,0.07992 0.2801,0.142373 0.0285,0.08673 -0.22461,0.11359 -1.06876,0.11359 -0.84444,0 -1.09711,-0.02698 -1.06824,-0.11359 z m 11.15916,0.02043 c 0,-0.05127 0.0995,-0.130975 0.22097,-0.177195 0.20756,-0.0789 0.54515,-0.487358 1.21078,-1.464919 l 0.28397,-0.417064 -0.53819,-0.810207 c -0.36549,-0.550218 -0.62618,-0.846753 -0.8124,-0.924104 -0.50934,-0.211562 -0.30372,-0.295195 0.7258,-0.295195 0.82828,0 0.99999,0.0234 0.99999,0.136367 0,0.07576 -0.0808,0.136362 -0.18183,0.136362 -0.1,0 -0.18182,0.0221 -0.18182,0.04906 0,0.09617 0.36249,0.757662 0.44217,0.806902 0.0804,0.04968 0.55785,-0.594385 0.55785,-0.752518 0,-0.04524 -0.0819,-0.103657 -0.18182,-0.129801 -0.1,-0.02614 -0.18182,-0.09229 -0.18182,-0.14697 0,-0.06466 0.28874,-0.09942 0.82576,-0.09942 0.62017,0 0.81634,0.02829 0.78792,0.113641 -0.0208,0.0625 -0.11629,0.128264 -0.21212,0.146144 -0.0957,0.01789 -0.23213,0.07926 -0.30284,0.136369 -0.19237,0.155421 -0.9169,1.170778 -0.9169,1.284953 0,0.05459 0.31705,0.567999 0.70454,1.140897 0.50046,0.739928 0.7638,1.050064 0.9091,1.070701 0.11244,0.01593 0.20454,0.08763 0.20454,0.159103 0,0.104981 -0.19333,0.130037 -1,0.130037 -0.66313,0 -1,-0.03354 -1,-0.09945 0,-0.05474 0.0819,-0.120786 0.18182,-0.14696 0.1,-0.02621 0.18182,-0.08866 0.18182,-0.138698 0,-0.111791 -0.61711,-1.13775 -0.72416,-1.2039 -0.0424,-0.02621 -0.26732,0.248973 -0.49976,0.611548 -0.38879,0.606512 -0.40765,0.661572 -0.23571,0.688299 0.10279,0.01593 0.1869,0.08763 0.1869,0.159103 0,0.102026 -0.15713,0.130038 -0.72728,0.130038 -0.43594,0 -0.72728,-0.03739 -0.72728,-0.09316 z M 169.54872,73.03961 c -0.27598,-0.275982 0.0166,-0.84852 0.33034,-0.646461 0.0834,0.05366 0.14823,0.184238 0.14426,0.290186 -0.008,0.222627 0.0762,0.247089 0.22671,0.06565 0.0976,-0.117637 0.9129,-3.141146 0.91564,-3.39575 5.3e-4,-0.0625 -0.101,-0.113641 -0.22604,-0.113641 -0.1329,0 -0.22727,-0.05222 -0.22727,-0.125772 0,-0.08785 0.1803,-0.145081 0.59806,-0.189819 0.32892,-0.03522 0.61056,-0.05022 0.62584,-0.03332 0.0505,0.05588 -0.75995,3.114777 -0.91894,3.468257 -0.22092,0.491169 -0.60695,0.789756 -1.02102,0.789756 -0.18618,0 -0.38758,-0.04906 -0.44758,-0.109092 z m -2.70371,-3.05001 c 0.0844,-0.822906 0.13824,-1.022731 0.27548,-1.022731 0.0636,0 0.16291,0.187365 0.22057,0.416365 0.19126,0.75958 0.77915,1.084868 1.20003,0.663994 0.29834,-0.298334 0.18845,-0.745459 -0.3864,-1.572342 -0.42644,-0.613398 -0.4878,-0.757166 -0.4878,-1.14297 0,-0.789883 0.60664,-1.174363 1.55308,-0.984297 0.38276,0.07688 0.52053,0.07269 0.63122,-0.01918 0.23841,-0.19786 0.29831,0.01286 0.20088,0.706604 -0.0742,0.528768 -0.12375,0.659093 -0.24998,0.659093 -0.11282,0 -0.17357,-0.101049 -0.2145,-0.357057 -0.0371,-0.232341 -0.14075,-0.422861 -0.2966,-0.545455 -0.29426,-0.231456 -0.40976,-0.235217 -0.67318,-0.02192 -0.24607,0.199251 -0.20793,0.459312 0.13636,0.929831 0.70385,0.961913 0.77637,1.111384 0.77637,1.600149 0,0.405778 -0.0429,0.52799 -0.28104,0.799118 -0.37448,0.426524 -0.83945,0.55154 -1.50084,0.403528 -0.3786,-0.08472 -0.52218,-0.08595 -0.60298,-0.0051 -0.0583,0.05834 -0.164,0.106047 -0.23483,0.106047 -0.10459,0 -0.11693,-0.115248 -0.0659,-0.613639 z m 9.15733,-1.000004 0.0283,-0.340909 2.75001,-0.02405 2.75001,-0.02405 v 0.364971 0.364969 h -2.77823 -2.77821 z m 9.89188,-0.886365 v -0.318168 h 20.59097 20.59098 v 0.318183 0.318183 h -20.59098 -20.59097 z m -14.4364,0.02728 c -0.16868,-0.168678 -0.12953,-0.411744 0.0912,-0.56637 0.17069,-0.119565 0.22782,-0.122084 0.38636,-0.01701 0.227,0.150442 0.28391,0.383405 0.13695,0.560487 -0.13283,0.160051 -0.46502,0.172432 -0.61455,0.02291 z m 4.52729,-0.981819 v -0.363638 h 2.77273 2.77272 v 0.363638 0.363637 h -2.77272 -2.77273 z m 27.8355,-6.250016 0.0281,-0.340911 2.61365,-0.02412 2.61364,-0.02412 v 0.365032 0.365033 h -2.64185 -2.64187 z"
       id="path2351"
       inkscape:connector-curvature="0"
       sodipodi:nodetypes="cccccccccccccccccsccccccscccccccccsscccscccssccccccscscssccccscccsssccccccsssccsccccccsccccccccsssscscsscccsccssscscccsscccccccssccsscccscccscccsccccscccscccccccccccccccccccccccccccccccccccccccccccc" />
    <path
       style="fill:#ba2121;fill-opacity:1;stroke-width:0.11378777"
       d="m 215.83833,65.919107 c -0.21882,-0.179567 -0.24522,-0.258694 -0.14244,-0.426703 0.0694,-0.113443 0.24862,-0.206258 0.39825,-0.206258 0.21081,0 0.2699,0.05892 0.26244,0.261592 -0.008,0.229268 0.0109,0.241076 0.1564,0.09556 0.15579,-0.155791 0.92584,-2.967059 0.93158,-3.400978 0.002,-0.124148 -0.083,-0.199129 -0.22493,-0.199129 -0.12517,0 -0.22758,-0.07091 -0.22758,-0.157571 0,-0.105946 0.20818,-0.18358 0.63541,-0.23696 0.34948,-0.04367 0.65894,-0.05586 0.68771,-0.0271 0.0897,0.08966 -0.75243,3.271955 -0.98801,3.733723 -0.21344,0.418384 -0.70632,0.784264 -1.05648,0.784264 -0.09,0 -0.28461,-0.0992 -0.43235,-0.220447 z m -3.62248,-2.848928 c -0.69976,-0.699762 -0.27866,-2.352974 0.87395,-3.431108 0.62624,-0.585776 1.2401,-0.839566 1.77731,-0.734796 0.43567,0.08497 0.47465,0.08486 1.0155,-0.0028 0.23469,-0.03806 0.42619,-0.02519 0.42556,0.02859 -6.2e-4,0.05378 -0.20113,0.89146 -0.44554,1.8615 -0.24443,0.970041 -0.42259,1.78558 -0.39593,1.812309 0.0267,0.02673 0.19156,-0.08848 0.36644,-0.256023 0.3324,-0.318464 0.58997,-0.395241 0.58997,-0.175861 0,0.07083 -0.22368,0.352443 -0.49707,0.625833 -0.36666,0.366655 -0.58691,0.497073 -0.83948,0.497073 -0.4408,0 -0.64618,-0.245847 -0.54536,-0.652801 l 0.0779,-0.314395 -0.37809,0.356157 c -0.51297,0.483192 -0.79288,0.611039 -1.33782,0.611039 -0.30892,0 -0.53727,-0.07465 -0.68732,-0.224681 z m 1.48425,-0.519022 c 0.91158,-0.471398 1.85018,-2.782809 1.31155,-3.229836 -0.41421,-0.34377 -1.26912,0.315833 -1.75112,1.35109 -0.33915,0.728437 -0.45981,1.63129 -0.25154,1.88224 0.17812,0.214632 0.2702,0.214167 0.69111,-0.0035 z m 4.093,-1.697268 c -0.1769,-0.213145 -0.11511,-0.516209 0.1377,-0.675415 0.39426,-0.248289 0.83823,0.311199 0.53596,0.675415 -0.17576,0.211775 -0.4979,0.211775 -0.67366,0 z"
       id="path2353"
       inkscape:connector-curvature="0" />
    <path
       style="fill:#42a5f5;fill-opacity:1;stroke-width:0.10786133"
       d="m 197.86308,65.904328 c -0.29103,-0.212802 -0.19115,-0.66809 0.14656,-0.66809 0.19309,0 0.28249,0.07301 0.33019,0.269654 l 0.0654,0.269654 0.13189,-0.242449 c 0.10569,-0.19428 0.87958,-3.112678 0.87958,-3.316928 0,-0.02968 -0.0971,-0.05398 -0.21572,-0.05398 -0.11865,0 -0.21572,-0.06655 -0.21572,-0.147896 0,-0.151183 1.04038,-0.357732 1.16652,-0.231591 0.0786,0.07865 -0.47732,2.398016 -0.75568,3.152439 -0.33084,0.896697 -1.02874,1.33792 -1.53302,0.969187 z m -3.38104,-2.716469 c -0.1928,-0.0838 -0.35055,-0.209264 -0.35055,-0.278808 0,-0.06955 0.3155,-1.279308 0.7011,-2.688364 0.38561,-1.409056 0.7011,-2.588352 0.7011,-2.620657 0,-0.0323 -0.14562,-0.09072 -0.32359,-0.129807 -0.30868,-0.0678 -0.41654,-0.202887 -0.24269,-0.303943 0.0445,-0.02586 0.41563,-0.08189 0.82475,-0.124501 l 0.74384,-0.07748 -0.0647,0.360825 c -0.0356,0.198453 -0.20904,0.883991 -0.38551,1.523416 l -0.32087,1.162591 0.30315,-0.324524 c 0.58796,-0.629412 1.41105,-0.730689 1.95906,-0.24105 0.3056,0.273065 0.3391,0.363534 0.33426,0.902678 -0.01,1.063273 -0.82673,2.259864 -1.89722,2.778075 -0.54042,0.261614 -1.45644,0.290058 -1.98217,0.06155 z m 1.47244,-0.31906 c 0.91026,-0.470711 1.77031,-2.195905 1.42054,-2.849462 -0.20994,-0.392287 -0.77676,-0.311496 -1.2005,0.171112 -0.60209,0.685755 -1.23553,2.375352 -1.02079,2.722813 0.0977,0.158056 0.44658,0.138683 0.80075,-0.04446 z m 3.80333,-1.772105 c -0.18842,-0.119434 -0.12104,-0.553253 0.10826,-0.696945 0.23551,-0.14759 0.52138,0.08041 0.52138,0.415842 0,0.321331 -0.3322,0.469639 -0.62964,0.281103 z"
       id="path2355"
       inkscape:connector-curvature="0" />
    <path
       inkscape:connector-curvature="0"
       id="path2357"
       d="m 220.17619,79.45104 c -0.29103,-0.212802 -0.19115,-0.66809 0.14656,-0.66809 0.19309,0 0.28249,0.07301 0.33019,0.269654 l 0.0654,0.269654 0.13189,-0.242449 c 0.10569,-0.19428 0.87958,-3.112678 0.87958,-3.316928 0,-0.02968 -0.0971,-0.05398 -0.21572,-0.05398 -0.11865,0 -0.21572,-0.06655 -0.21572,-0.147896 0,-0.151183 1.04038,-0.357732 1.16652,-0.231591 0.0786,0.07865 -0.47732,2.398016 -0.75568,3.152439 -0.33084,0.896697 -1.02874,1.33792 -1.53302,0.969187 z m -3.38104,-2.716469 c -0.1928,-0.0838 -0.35055,-0.209264 -0.35055,-0.278808 0,-0.06955 0.3155,-1.279308 0.7011,-2.688364 0.38561,-1.409056 0.7011,-2.588352 0.7011,-2.620657 0,-0.0323 -0.14562,-0.09072 -0.32359,-0.129807 -0.30868,-0.0678 -0.41654,-0.202887 -0.24269,-0.303943 0.0445,-0.02586 0.41563,-0.08189 0.82475,-0.124501 l 0.74384,-0.07748 -0.0647,0.360825 c -0.0356,0.198453 -0.20904,0.883991 -0.38551,1.523416 l -0.32087,1.162591 0.30315,-0.324524 c 0.58796,-0.629412 1.41105,-0.730689 1.95906,-0.24105 0.3056,0.273065 0.3391,0.363534 0.33426,0.902678 -0.01,1.063273 -0.82673,2.259864 -1.89722,2.778075 -0.54042,0.261614 -1.45644,0.290058 -1.98217,0.06155 z m 1.47244,-0.31906 c 0.91026,-0.470711 1.77031,-2.195905 1.42054,-2.849462 -0.20994,-0.392287 -0.77676,-0.311496 -1.2005,0.171112 -0.60209,0.685755 -1.23553,2.375352 -1.02079,2.722813 0.0977,0.158056 0.44658,0.138683 0.80075,-0.04446 z m 3.80333,-1.772105 c -0.18842,-0.119434 -0.12104,-0.553253 0.10826,-0.696945 0.23551,-0.14759 0.52138,0.08041 0.52138,0.415842 0,0.321331 -0.3322,0.469639 -0.62964,0.281103 z"
       style="fill:#42a5f5;fill-opacity:1;stroke-width:0.10786133" />
    <path
       inkscape:connector-curvature="0"
       id="path2359"
       d="m 209.22008,79.427932 c -0.21882,-0.179567 -0.24522,-0.258694 -0.14244,-0.426703 0.0694,-0.113443 0.24862,-0.206258 0.39825,-0.206258 0.21081,0 0.2699,0.05892 0.26244,0.261592 -0.008,0.229268 0.0109,0.241076 0.1564,0.09556 0.15579,-0.155791 0.92584,-2.967059 0.93158,-3.400978 0.002,-0.124148 -0.083,-0.199129 -0.22493,-0.199129 -0.12517,0 -0.22758,-0.07091 -0.22758,-0.157571 0,-0.105946 0.20818,-0.18358 0.63541,-0.23696 0.34948,-0.04367 0.65894,-0.05586 0.68771,-0.0271 0.0897,0.08966 -0.75243,3.271955 -0.98801,3.733723 -0.21344,0.418384 -0.70632,0.784264 -1.05648,0.784264 -0.09,0 -0.28461,-0.0992 -0.43235,-0.220447 z m -3.62248,-2.848928 c -0.69976,-0.699762 -0.27866,-2.352974 0.87395,-3.431108 0.62624,-0.585776 1.2401,-0.839566 1.77731,-0.734796 0.43567,0.08497 0.47465,0.08486 1.0155,-0.0028 0.23469,-0.03806 0.42619,-0.02519 0.42556,0.02859 -6.2e-4,0.05378 -0.20113,0.89146 -0.44554,1.8615 -0.24443,0.970041 -0.42259,1.78558 -0.39593,1.812309 0.0267,0.02673 0.19156,-0.08848 0.36644,-0.256023 0.3324,-0.318464 0.58997,-0.395241 0.58997,-0.175861 0,0.07083 -0.22368,0.352443 -0.49707,0.625833 -0.36666,0.366655 -0.58691,0.497073 -0.83948,0.497073 -0.4408,0 -0.64618,-0.245847 -0.54536,-0.652801 l 0.0779,-0.314395 -0.37809,0.356157 c -0.51297,0.483192 -0.79288,0.611039 -1.33782,0.611039 -0.30892,0 -0.53727,-0.07465 -0.68732,-0.224681 z m 1.48425,-0.519022 c 0.91158,-0.471398 1.85018,-2.782809 1.31155,-3.229836 -0.41421,-0.34377 -1.26912,0.315833 -1.75112,1.35109 -0.33915,0.728437 -0.45981,1.63129 -0.25154,1.88224 0.17812,0.214632 0.2702,0.214167 0.69111,-0.0035 z m 4.093,-1.697268 c -0.1769,-0.213145 -0.11511,-0.516209 0.1377,-0.675415 0.39426,-0.248289 0.83823,0.311199 0.53596,0.675415 -0.17576,0.211775 -0.4979,0.211775 -0.67366,0 z"
       style="fill:#ba2121;fill-opacity:1;stroke-width:0.11378777" />
    <text
       xml:space="preserve"
       style="font-style:normal;font-weight:normal;font-size:8.22328663px;line-height:1.25;font-family:sans-serif;letter-spacing:0px;word-spacing:0px;fill:#000000;fill-opacity:1;stroke:none;stroke-width:0.20558216"
       x="212.67073"
       y="77.211334"
       id="text879"><tspan
         sodipodi:role="line"
         id="tspan877"
         x="212.67073"
         y="77.211334"
         style="stroke-width:0.20558216">,</tspan></text>
  </g>
</svg>
